<mxfile host="65bd71144e">
    <diagram id="R2lEEEUBdFMjLlhIrx00" name="Page-1">
        <mxGraphModel dx="820" dy="575" grid="1" gridSize="10" guides="1" tooltips="1" connect="1" arrows="1" fold="1" page="1" pageScale="1" pageWidth="850" pageHeight="1100" math="0" shadow="0" extFonts="Permanent Marker^https://fonts.googleapis.com/css?family=Permanent+Marker">
            <root>
                <mxCell id="0"/>
                <mxCell id="1" parent="0"/>
                <mxCell id="6eawJTQG3M_XXOWTf8ui-93" style="edgeStyle=none;rounded=0;orthogonalLoop=1;jettySize=auto;html=1;exitX=0.5;exitY=0;exitDx=0;exitDy=0;entryX=0.5;entryY=1;entryDx=0;entryDy=0;endArrow=none;endFill=0;" parent="1" source="CnkEdXGukRLFIG1xnINJ-2" target="6eawJTQG3M_XXOWTf8ui-83" edge="1">
                    <mxGeometry relative="1" as="geometry"/>
                </mxCell>
                <mxCell id="CnkEdXGukRLFIG1xnINJ-2" value="MOOD" style="whiteSpace=wrap;html=1;align=center;" parent="1" vertex="1">
                    <mxGeometry x="99.75" y="376.75" width="100" height="40" as="geometry"/>
                </mxCell>
                <mxCell id="6eawJTQG3M_XXOWTf8ui-19" style="edgeStyle=none;rounded=0;orthogonalLoop=1;jettySize=auto;html=1;exitX=0.75;exitY=1;exitDx=0;exitDy=0;entryX=0.5;entryY=1;entryDx=0;entryDy=0;endArrow=none;endFill=0;" parent="1" source="CnkEdXGukRLFIG1xnINJ-8" target="6eawJTQG3M_XXOWTf8ui-16" edge="1">
                    <mxGeometry relative="1" as="geometry"/>
                </mxCell>
                <mxCell id="6eawJTQG3M_XXOWTf8ui-20" style="edgeStyle=none;rounded=0;orthogonalLoop=1;jettySize=auto;html=1;exitX=0.25;exitY=1;exitDx=0;exitDy=0;entryX=0.5;entryY=0;entryDx=0;entryDy=0;endArrow=none;endFill=0;" parent="1" source="CnkEdXGukRLFIG1xnINJ-8" target="6eawJTQG3M_XXOWTf8ui-18" edge="1">
                    <mxGeometry relative="1" as="geometry"/>
                </mxCell>
                <mxCell id="CnkEdXGukRLFIG1xnINJ-8" value="SCENT" style="whiteSpace=wrap;html=1;align=center;" parent="1" vertex="1">
                    <mxGeometry x="559.75" y="203.75" width="100" height="40" as="geometry"/>
                </mxCell>
                <mxCell id="CnkEdXGukRLFIG1xnINJ-19" style="edgeStyle=none;rounded=0;orthogonalLoop=1;jettySize=auto;html=1;endArrow=none;endFill=0;entryX=0.5;entryY=0;entryDx=0;entryDy=0;" parent="1" source="CnkEdXGukRLFIG1xnINJ-9" target="CnkEdXGukRLFIG1xnINJ-18" edge="1">
                    <mxGeometry relative="1" as="geometry">
                        <mxPoint x="291" y="905" as="sourcePoint"/>
                    </mxGeometry>
                </mxCell>
                <mxCell id="CnkEdXGukRLFIG1xnINJ-9" value="USER" style="whiteSpace=wrap;html=1;align=center;direction=west;" parent="1" vertex="1">
                    <mxGeometry x="131" y="885" width="100" height="40" as="geometry"/>
                </mxCell>
                <mxCell id="6eawJTQG3M_XXOWTf8ui-176" style="edgeStyle=none;rounded=0;orthogonalLoop=1;jettySize=auto;html=1;entryX=0.5;entryY=0;entryDx=0;entryDy=0;endArrow=none;endFill=0;exitX=0.5;exitY=1;exitDx=0;exitDy=0;" parent="1" source="CnkEdXGukRLFIG1xnINJ-84" target="6eawJTQG3M_XXOWTf8ui-175" edge="1">
                    <mxGeometry relative="1" as="geometry">
                        <mxPoint x="629.13" y="854.6100000000002" as="sourcePoint"/>
                    </mxGeometry>
                </mxCell>
                <mxCell id="6eawJTQG3M_XXOWTf8ui-193" style="edgeStyle=none;rounded=0;orthogonalLoop=1;jettySize=auto;html=1;exitX=0.5;exitY=0;exitDx=0;exitDy=0;entryX=0.5;entryY=1;entryDx=0;entryDy=0;endArrow=none;endFill=0;" parent="1" source="CnkEdXGukRLFIG1xnINJ-10" target="6eawJTQG3M_XXOWTf8ui-192" edge="1">
                    <mxGeometry relative="1" as="geometry"/>
                </mxCell>
                <mxCell id="CnkEdXGukRLFIG1xnINJ-10" value="CLIENT" style="whiteSpace=wrap;html=1;align=center;" parent="1" vertex="1">
                    <mxGeometry x="208.5" y="741.79" width="100" height="40" as="geometry"/>
                </mxCell>
                <mxCell id="CnkEdXGukRLFIG1xnINJ-11" value="ADMIN" style="whiteSpace=wrap;html=1;align=center;" parent="1" vertex="1">
                    <mxGeometry x="41" y="741.79" width="100" height="40" as="geometry"/>
                </mxCell>
                <mxCell id="CnkEdXGukRLFIG1xnINJ-21" style="edgeStyle=none;rounded=0;orthogonalLoop=1;jettySize=auto;html=1;endArrow=none;endFill=0;exitX=1;exitY=0.5;exitDx=0;exitDy=0;exitPerimeter=0;entryX=0.5;entryY=1;entryDx=0;entryDy=0;" parent="1" source="CnkEdXGukRLFIG1xnINJ-16" target="CnkEdXGukRLFIG1xnINJ-10" edge="1">
                    <mxGeometry relative="1" as="geometry">
                        <mxPoint x="220" y="885" as="sourcePoint"/>
                    </mxGeometry>
                </mxCell>
                <mxCell id="CnkEdXGukRLFIG1xnINJ-16" value="" style="shape=requiredInterface;html=1;verticalLabelPosition=bottom;sketch=0;rotation=135;direction=west;" parent="1" vertex="1">
                    <mxGeometry x="204.5" y="813" width="20" height="20" as="geometry"/>
                </mxCell>
                <mxCell id="6eawJTQG3M_XXOWTf8ui-187" style="edgeStyle=none;rounded=0;orthogonalLoop=1;jettySize=auto;html=1;exitX=1;exitY=0.5;exitDx=0;exitDy=0;exitPerimeter=0;entryX=0.5;entryY=1;entryDx=0;entryDy=0;endArrow=none;endFill=0;" parent="1" source="CnkEdXGukRLFIG1xnINJ-17" target="CnkEdXGukRLFIG1xnINJ-11" edge="1">
                    <mxGeometry relative="1" as="geometry"/>
                </mxCell>
                <mxCell id="CnkEdXGukRLFIG1xnINJ-17" value="" style="shape=requiredInterface;html=1;verticalLabelPosition=bottom;sketch=0;rotation=45;direction=west;" parent="1" vertex="1">
                    <mxGeometry x="135.75" y="813" width="20" height="20" as="geometry"/>
                </mxCell>
                <mxCell id="CnkEdXGukRLFIG1xnINJ-22" style="edgeStyle=none;rounded=0;orthogonalLoop=1;jettySize=auto;html=1;endArrow=none;endFill=0;entryX=1;entryY=0.5;entryDx=0;entryDy=0;entryPerimeter=0;exitX=0.5;exitY=1;exitDx=0;exitDy=0;" parent="1" source="CnkEdXGukRLFIG1xnINJ-18" target="CnkEdXGukRLFIG1xnINJ-16" edge="1">
                    <mxGeometry relative="1" as="geometry">
                        <mxPoint x="193.75" y="919" as="sourcePoint"/>
                        <mxPoint x="234.75" y="863" as="targetPoint"/>
                    </mxGeometry>
                </mxCell>
                <mxCell id="6eawJTQG3M_XXOWTf8ui-186" style="rounded=0;orthogonalLoop=1;jettySize=auto;html=1;exitX=0.5;exitY=1;exitDx=0;exitDy=0;entryX=1;entryY=0.5;entryDx=0;entryDy=0;entryPerimeter=0;endArrow=none;endFill=0;" parent="1" source="CnkEdXGukRLFIG1xnINJ-18" target="CnkEdXGukRLFIG1xnINJ-17" edge="1">
                    <mxGeometry relative="1" as="geometry"/>
                </mxCell>
                <mxCell id="CnkEdXGukRLFIG1xnINJ-18" value="&lt;b&gt;o&lt;/b&gt;" style="ellipse;whiteSpace=wrap;html=1;aspect=fixed;direction=west;" parent="1" vertex="1">
                    <mxGeometry x="169.75" y="853" width="20" height="20" as="geometry"/>
                </mxCell>
                <mxCell id="CnkEdXGukRLFIG1xnINJ-90" value="N" style="edgeStyle=none;rounded=0;orthogonalLoop=1;jettySize=auto;html=1;exitX=1;exitY=0.25;exitDx=0;exitDy=0;endArrow=none;endFill=0;entryX=1;entryY=0.5;entryDx=0;entryDy=0;" parent="1" source="CnkEdXGukRLFIG1xnINJ-24" target="CnkEdXGukRLFIG1xnINJ-88" edge="1">
                    <mxGeometry x="0.9989" y="14" relative="1" as="geometry">
                        <mxPoint x="809.75" y="334.25" as="targetPoint"/>
                        <Array as="points">
                            <mxPoint x="810" y="387"/>
                            <mxPoint x="810" y="832"/>
                        </Array>
                        <mxPoint as="offset"/>
                    </mxGeometry>
                </mxCell>
                <mxCell id="6eawJTQG3M_XXOWTf8ui-99" style="edgeStyle=none;rounded=0;orthogonalLoop=1;jettySize=auto;html=1;exitX=0.5;exitY=0;exitDx=0;exitDy=0;entryX=0.5;entryY=1;entryDx=0;entryDy=0;endArrow=none;endFill=0;" parent="1" source="CnkEdXGukRLFIG1xnINJ-24" target="6eawJTQG3M_XXOWTf8ui-82" edge="1">
                    <mxGeometry relative="1" as="geometry"/>
                </mxCell>
                <mxCell id="6eawJTQG3M_XXOWTf8ui-100" style="edgeStyle=none;rounded=0;orthogonalLoop=1;jettySize=auto;html=1;exitX=0.5;exitY=0;exitDx=0;exitDy=0;entryX=0.5;entryY=1;entryDx=0;entryDy=0;endArrow=none;endFill=0;" parent="1" source="CnkEdXGukRLFIG1xnINJ-24" target="6eawJTQG3M_XXOWTf8ui-55" edge="1">
                    <mxGeometry relative="1" as="geometry"/>
                </mxCell>
                <mxCell id="6eawJTQG3M_XXOWTf8ui-101" style="edgeStyle=none;rounded=0;orthogonalLoop=1;jettySize=auto;html=1;exitX=0.5;exitY=0;exitDx=0;exitDy=0;entryX=0.5;entryY=1;entryDx=0;entryDy=0;endArrow=none;endFill=0;" parent="1" source="CnkEdXGukRLFIG1xnINJ-24" target="6eawJTQG3M_XXOWTf8ui-16" edge="1">
                    <mxGeometry relative="1" as="geometry"/>
                </mxCell>
                <mxCell id="6eawJTQG3M_XXOWTf8ui-102" style="edgeStyle=none;rounded=0;orthogonalLoop=1;jettySize=auto;html=1;exitX=0.5;exitY=1;exitDx=0;exitDy=0;entryX=0.5;entryY=0;entryDx=0;entryDy=0;endArrow=none;endFill=0;" parent="1" source="CnkEdXGukRLFIG1xnINJ-24" target="6eawJTQG3M_XXOWTf8ui-28" edge="1">
                    <mxGeometry relative="1" as="geometry"/>
                </mxCell>
                <mxCell id="6eawJTQG3M_XXOWTf8ui-103" style="edgeStyle=none;rounded=0;orthogonalLoop=1;jettySize=auto;html=1;exitX=0.5;exitY=1;exitDx=0;exitDy=0;entryX=0.5;entryY=0;entryDx=0;entryDy=0;endArrow=none;endFill=0;" parent="1" source="CnkEdXGukRLFIG1xnINJ-24" target="6eawJTQG3M_XXOWTf8ui-37" edge="1">
                    <mxGeometry relative="1" as="geometry"/>
                </mxCell>
                <mxCell id="6eawJTQG3M_XXOWTf8ui-104" style="edgeStyle=none;rounded=0;orthogonalLoop=1;jettySize=auto;html=1;exitX=0.5;exitY=1;exitDx=0;exitDy=0;entryX=0.5;entryY=0;entryDx=0;entryDy=0;endArrow=none;endFill=0;" parent="1" source="CnkEdXGukRLFIG1xnINJ-24" target="6eawJTQG3M_XXOWTf8ui-46" edge="1">
                    <mxGeometry relative="1" as="geometry"/>
                </mxCell>
                <mxCell id="CnkEdXGukRLFIG1xnINJ-24" value="RESULT" style="shape=ext;margin=3;double=1;whiteSpace=wrap;html=1;align=center;" parent="1" vertex="1">
                    <mxGeometry x="561" y="376.75" width="100" height="40" as="geometry"/>
                </mxCell>
                <mxCell id="CnkEdXGukRLFIG1xnINJ-89" value="1" style="edgeStyle=none;rounded=0;orthogonalLoop=1;jettySize=auto;html=1;endArrow=none;endFill=0;entryX=0;entryY=0.5;entryDx=0;entryDy=0;exitX=1;exitY=0.5;exitDx=0;exitDy=0;" parent="1" source="CnkEdXGukRLFIG1xnINJ-84" target="CnkEdXGukRLFIG1xnINJ-88" edge="1">
                    <mxGeometry x="0.9863" y="-14" relative="1" as="geometry">
                        <mxPoint x="461.63" y="803" as="sourcePoint"/>
                        <mxPoint x="621.63" y="649.25" as="targetPoint"/>
                        <mxPoint as="offset"/>
                    </mxGeometry>
                </mxCell>
                <mxCell id="CnkEdXGukRLFIG1xnINJ-84" value="Profile" style="shape=ext;margin=3;double=1;whiteSpace=wrap;html=1;align=center;" parent="1" vertex="1">
                    <mxGeometry x="559.13" y="812.11" width="100" height="40" as="geometry"/>
                </mxCell>
                <mxCell id="CnkEdXGukRLFIG1xnINJ-88" value="Contains" style="shape=rhombus;perimeter=rhombusPerimeter;whiteSpace=wrap;html=1;align=center;" parent="1" vertex="1">
                    <mxGeometry x="696.63" y="809.61" width="90" height="45" as="geometry"/>
                </mxCell>
                <mxCell id="6eawJTQG3M_XXOWTf8ui-16" value="Contains" style="shape=rhombus;perimeter=rhombusPerimeter;whiteSpace=wrap;html=1;align=center;" parent="1" vertex="1">
                    <mxGeometry x="626" y="264.25" width="95" height="47.5" as="geometry"/>
                </mxCell>
                <mxCell id="6eawJTQG3M_XXOWTf8ui-95" style="edgeStyle=none;rounded=0;orthogonalLoop=1;jettySize=auto;html=1;exitX=0.5;exitY=1;exitDx=0;exitDy=0;entryX=0.5;entryY=0;entryDx=0;entryDy=0;endArrow=none;endFill=0;" parent="1" source="6eawJTQG3M_XXOWTf8ui-18" target="CnkEdXGukRLFIG1xnINJ-2" edge="1">
                    <mxGeometry relative="1" as="geometry"/>
                </mxCell>
                <mxCell id="6eawJTQG3M_XXOWTf8ui-18" value="Affect" style="shape=rhombus;perimeter=rhombusPerimeter;whiteSpace=wrap;html=1;align=center;" parent="1" vertex="1">
                    <mxGeometry x="498.5" y="264.25" width="95" height="47.5" as="geometry"/>
                </mxCell>
                <mxCell id="6eawJTQG3M_XXOWTf8ui-23" value="1" style="edgeStyle=none;rounded=0;orthogonalLoop=1;jettySize=auto;html=1;exitX=0.75;exitY=0;exitDx=0;exitDy=0;entryX=0.5;entryY=1;entryDx=0;entryDy=0;endArrow=none;endFill=0;" parent="1" source="6eawJTQG3M_XXOWTf8ui-25" target="6eawJTQG3M_XXOWTf8ui-28" edge="1">
                    <mxGeometry x="0.4709" y="-15" relative="1" as="geometry">
                        <mxPoint as="offset"/>
                    </mxGeometry>
                </mxCell>
                <mxCell id="6eawJTQG3M_XXOWTf8ui-24" value="N" style="edgeStyle=none;rounded=0;orthogonalLoop=1;jettySize=auto;html=1;exitX=0.25;exitY=0;exitDx=0;exitDy=0;entryX=0.5;entryY=1;entryDx=0;entryDy=0;endArrow=none;endFill=0;" parent="1" source="6eawJTQG3M_XXOWTf8ui-25" target="6eawJTQG3M_XXOWTf8ui-29" edge="1">
                    <mxGeometry x="0.6941" y="10" relative="1" as="geometry">
                        <mxPoint as="offset"/>
                    </mxGeometry>
                </mxCell>
                <mxCell id="6eawJTQG3M_XXOWTf8ui-25" value="MEDIA_GENRE" style="whiteSpace=wrap;html=1;align=center;" parent="1" vertex="1">
                    <mxGeometry x="103.5" y="566.75" width="100" height="40" as="geometry"/>
                </mxCell>
                <mxCell id="6eawJTQG3M_XXOWTf8ui-28" value="Contains" style="shape=rhombus;perimeter=rhombusPerimeter;whiteSpace=wrap;html=1;align=center;" parent="1" vertex="1">
                    <mxGeometry x="168.5" y="486.75" width="95" height="47.5" as="geometry"/>
                </mxCell>
                <mxCell id="6eawJTQG3M_XXOWTf8ui-96" style="edgeStyle=none;rounded=0;orthogonalLoop=1;jettySize=auto;html=1;exitX=0.5;exitY=0;exitDx=0;exitDy=0;entryX=0.5;entryY=1;entryDx=0;entryDy=0;endArrow=none;endFill=0;" parent="1" source="6eawJTQG3M_XXOWTf8ui-29" target="CnkEdXGukRLFIG1xnINJ-2" edge="1">
                    <mxGeometry relative="1" as="geometry"/>
                </mxCell>
                <mxCell id="FZOF9hMqammXhgaBvVRD-3" value="M" style="edgeLabel;html=1;align=center;verticalAlign=middle;resizable=0;points=[];" parent="6eawJTQG3M_XXOWTf8ui-96" connectable="0" vertex="1">
                    <mxGeometry x="0.4704" y="-1" relative="1" as="geometry">
                        <mxPoint x="-54" y="41" as="offset"/>
                    </mxGeometry>
                </mxCell>
                <mxCell id="6eawJTQG3M_XXOWTf8ui-29" value="Affect" style="shape=rhombus;perimeter=rhombusPerimeter;whiteSpace=wrap;html=1;align=center;" parent="1" vertex="1">
                    <mxGeometry x="41" y="486.75" width="95" height="47.5" as="geometry"/>
                </mxCell>
                <mxCell id="6eawJTQG3M_XXOWTf8ui-32" style="edgeStyle=none;rounded=0;orthogonalLoop=1;jettySize=auto;html=1;exitX=0.75;exitY=0;exitDx=0;exitDy=0;entryX=0.5;entryY=1;entryDx=0;entryDy=0;endArrow=none;endFill=0;" parent="1" source="6eawJTQG3M_XXOWTf8ui-34" target="6eawJTQG3M_XXOWTf8ui-37" edge="1">
                    <mxGeometry relative="1" as="geometry"/>
                </mxCell>
                <mxCell id="FZOF9hMqammXhgaBvVRD-5" value="1" style="edgeLabel;html=1;align=center;verticalAlign=middle;resizable=0;points=[];" parent="6eawJTQG3M_XXOWTf8ui-32" connectable="0" vertex="1">
                    <mxGeometry x="-0.1665" y="-2" relative="1" as="geometry">
                        <mxPoint x="20" y="-8" as="offset"/>
                    </mxGeometry>
                </mxCell>
                <mxCell id="6eawJTQG3M_XXOWTf8ui-33" style="edgeStyle=none;rounded=0;orthogonalLoop=1;jettySize=auto;html=1;exitX=0.25;exitY=0;exitDx=0;exitDy=0;entryX=0.5;entryY=1;entryDx=0;entryDy=0;endArrow=none;endFill=0;" parent="1" source="6eawJTQG3M_XXOWTf8ui-34" target="6eawJTQG3M_XXOWTf8ui-38" edge="1">
                    <mxGeometry relative="1" as="geometry"/>
                </mxCell>
                <mxCell id="FZOF9hMqammXhgaBvVRD-4" value="N" style="edgeLabel;html=1;align=center;verticalAlign=middle;resizable=0;points=[];" parent="6eawJTQG3M_XXOWTf8ui-33" connectable="0" vertex="1">
                    <mxGeometry x="-0.286" y="1" relative="1" as="geometry">
                        <mxPoint x="-10" y="-22" as="offset"/>
                    </mxGeometry>
                </mxCell>
                <mxCell id="6eawJTQG3M_XXOWTf8ui-34" value="SHAPE" style="whiteSpace=wrap;html=1;align=center;" parent="1" vertex="1">
                    <mxGeometry x="333.5" y="566.75" width="100" height="40" as="geometry"/>
                </mxCell>
                <mxCell id="6eawJTQG3M_XXOWTf8ui-37" value="Contains" style="shape=rhombus;perimeter=rhombusPerimeter;whiteSpace=wrap;html=1;align=center;" parent="1" vertex="1">
                    <mxGeometry x="398.5" y="486.75" width="95" height="47.5" as="geometry"/>
                </mxCell>
                <mxCell id="6eawJTQG3M_XXOWTf8ui-97" style="edgeStyle=none;rounded=0;orthogonalLoop=1;jettySize=auto;html=1;exitX=0.5;exitY=0;exitDx=0;exitDy=0;entryX=0.5;entryY=1;entryDx=0;entryDy=0;endArrow=none;endFill=0;" parent="1" source="6eawJTQG3M_XXOWTf8ui-38" target="CnkEdXGukRLFIG1xnINJ-2" edge="1">
                    <mxGeometry relative="1" as="geometry"/>
                </mxCell>
                <mxCell id="6eawJTQG3M_XXOWTf8ui-38" value="Affect" style="shape=rhombus;perimeter=rhombusPerimeter;whiteSpace=wrap;html=1;align=center;" parent="1" vertex="1">
                    <mxGeometry x="271" y="486.75" width="95" height="47.5" as="geometry"/>
                </mxCell>
                <mxCell id="6eawJTQG3M_XXOWTf8ui-41" style="edgeStyle=none;rounded=0;orthogonalLoop=1;jettySize=auto;html=1;exitX=0.75;exitY=0;exitDx=0;exitDy=0;entryX=0.5;entryY=1;entryDx=0;entryDy=0;endArrow=none;endFill=0;" parent="1" source="6eawJTQG3M_XXOWTf8ui-43" target="6eawJTQG3M_XXOWTf8ui-46" edge="1">
                    <mxGeometry relative="1" as="geometry"/>
                </mxCell>
                <mxCell id="6eawJTQG3M_XXOWTf8ui-42" style="edgeStyle=none;rounded=0;orthogonalLoop=1;jettySize=auto;html=1;exitX=0.25;exitY=0;exitDx=0;exitDy=0;entryX=0.5;entryY=1;entryDx=0;entryDy=0;endArrow=none;endFill=0;" parent="1" source="6eawJTQG3M_XXOWTf8ui-43" target="6eawJTQG3M_XXOWTf8ui-47" edge="1">
                    <mxGeometry relative="1" as="geometry"/>
                </mxCell>
                <mxCell id="6eawJTQG3M_XXOWTf8ui-43" value="MUSIC_GENRE" style="whiteSpace=wrap;html=1;align=center;" parent="1" vertex="1">
                    <mxGeometry x="571" y="566.75" width="100" height="40" as="geometry"/>
                </mxCell>
                <mxCell id="6eawJTQG3M_XXOWTf8ui-46" value="Contains" style="shape=rhombus;perimeter=rhombusPerimeter;whiteSpace=wrap;html=1;align=center;" parent="1" vertex="1">
                    <mxGeometry x="636" y="486.75" width="95" height="47.5" as="geometry"/>
                </mxCell>
                <mxCell id="6eawJTQG3M_XXOWTf8ui-98" style="edgeStyle=none;rounded=0;orthogonalLoop=1;jettySize=auto;html=1;exitX=0.5;exitY=0;exitDx=0;exitDy=0;entryX=0.5;entryY=1;entryDx=0;entryDy=0;endArrow=none;endFill=0;" parent="1" source="6eawJTQG3M_XXOWTf8ui-47" target="CnkEdXGukRLFIG1xnINJ-2" edge="1">
                    <mxGeometry relative="1" as="geometry"/>
                </mxCell>
                <mxCell id="6eawJTQG3M_XXOWTf8ui-47" value="Affect" style="shape=rhombus;perimeter=rhombusPerimeter;whiteSpace=wrap;html=1;align=center;" parent="1" vertex="1">
                    <mxGeometry x="508.5" y="486.75" width="95" height="47.5" as="geometry"/>
                </mxCell>
                <mxCell id="6eawJTQG3M_XXOWTf8ui-50" style="edgeStyle=none;rounded=0;orthogonalLoop=1;jettySize=auto;html=1;exitX=0.75;exitY=1;exitDx=0;exitDy=0;entryX=0.5;entryY=1;entryDx=0;entryDy=0;endArrow=none;endFill=0;" parent="1" source="6eawJTQG3M_XXOWTf8ui-52" target="6eawJTQG3M_XXOWTf8ui-55" edge="1">
                    <mxGeometry relative="1" as="geometry"/>
                </mxCell>
                <mxCell id="6eawJTQG3M_XXOWTf8ui-51" style="edgeStyle=none;rounded=0;orthogonalLoop=1;jettySize=auto;html=1;exitX=0.25;exitY=1;exitDx=0;exitDy=0;entryX=0.5;entryY=1;entryDx=0;entryDy=0;endArrow=none;endFill=0;" parent="1" source="6eawJTQG3M_XXOWTf8ui-52" target="6eawJTQG3M_XXOWTf8ui-56" edge="1">
                    <mxGeometry relative="1" as="geometry"/>
                </mxCell>
                <mxCell id="6eawJTQG3M_XXOWTf8ui-52" value="COLOR" style="whiteSpace=wrap;html=1;align=center;" parent="1" vertex="1">
                    <mxGeometry x="329.75" y="203.75" width="100" height="40" as="geometry"/>
                </mxCell>
                <mxCell id="6eawJTQG3M_XXOWTf8ui-55" value="Contains" style="shape=rhombus;perimeter=rhombusPerimeter;whiteSpace=wrap;html=1;align=center;" parent="1" vertex="1">
                    <mxGeometry x="396" y="264.25" width="95" height="47.5" as="geometry"/>
                </mxCell>
                <mxCell id="6eawJTQG3M_XXOWTf8ui-94" style="edgeStyle=none;rounded=0;orthogonalLoop=1;jettySize=auto;html=1;exitX=0.5;exitY=1;exitDx=0;exitDy=0;entryX=0.5;entryY=0;entryDx=0;entryDy=0;endArrow=none;endFill=0;" parent="1" source="6eawJTQG3M_XXOWTf8ui-56" target="CnkEdXGukRLFIG1xnINJ-2" edge="1">
                    <mxGeometry relative="1" as="geometry"/>
                </mxCell>
                <mxCell id="6eawJTQG3M_XXOWTf8ui-56" value="Affect" style="shape=rhombus;perimeter=rhombusPerimeter;whiteSpace=wrap;html=1;align=center;" parent="1" vertex="1">
                    <mxGeometry x="268.5" y="264.25" width="95" height="47.5" as="geometry"/>
                </mxCell>
                <mxCell id="6eawJTQG3M_XXOWTf8ui-77" style="edgeStyle=none;rounded=0;orthogonalLoop=1;jettySize=auto;html=1;exitX=0.75;exitY=1;exitDx=0;exitDy=0;entryX=0.5;entryY=1;entryDx=0;entryDy=0;endArrow=none;endFill=0;" parent="1" source="6eawJTQG3M_XXOWTf8ui-79" target="6eawJTQG3M_XXOWTf8ui-82" edge="1">
                    <mxGeometry relative="1" as="geometry"/>
                </mxCell>
                <mxCell id="6eawJTQG3M_XXOWTf8ui-78" style="edgeStyle=none;rounded=0;orthogonalLoop=1;jettySize=auto;html=1;exitX=0.25;exitY=1;exitDx=0;exitDy=0;entryX=0.5;entryY=1;entryDx=0;entryDy=0;endArrow=none;endFill=0;" parent="1" source="6eawJTQG3M_XXOWTf8ui-79" target="6eawJTQG3M_XXOWTf8ui-83" edge="1">
                    <mxGeometry relative="1" as="geometry"/>
                </mxCell>
                <mxCell id="6eawJTQG3M_XXOWTf8ui-115" style="edgeStyle=none;rounded=0;orthogonalLoop=1;jettySize=auto;html=1;exitX=0.5;exitY=0;exitDx=0;exitDy=0;entryX=0.5;entryY=1;entryDx=0;entryDy=0;endArrow=none;endFill=0;" parent="1" source="6eawJTQG3M_XXOWTf8ui-79" target="6eawJTQG3M_XXOWTf8ui-84" edge="1">
                    <mxGeometry relative="1" as="geometry"/>
                </mxCell>
                <mxCell id="6eawJTQG3M_XXOWTf8ui-79" value="TASTE" style="whiteSpace=wrap;html=1;align=center;" parent="1" vertex="1">
                    <mxGeometry x="102.25" y="203.75" width="100" height="40" as="geometry"/>
                </mxCell>
                <mxCell id="6eawJTQG3M_XXOWTf8ui-82" value="Contains" style="shape=rhombus;perimeter=rhombusPerimeter;whiteSpace=wrap;html=1;align=center;" parent="1" vertex="1">
                    <mxGeometry x="168.5" y="264.25" width="95" height="47.5" as="geometry"/>
                </mxCell>
                <mxCell id="6eawJTQG3M_XXOWTf8ui-83" value="Affect" style="shape=rhombus;perimeter=rhombusPerimeter;whiteSpace=wrap;html=1;align=center;" parent="1" vertex="1">
                    <mxGeometry x="41" y="264.25" width="95" height="47.5" as="geometry"/>
                </mxCell>
                <mxCell id="6eawJTQG3M_XXOWTf8ui-84" value="Type" style="ellipse;whiteSpace=wrap;html=1;align=center;fontStyle=4" parent="1" vertex="1">
                    <mxGeometry x="117.25" y="155" width="70" height="30" as="geometry"/>
                </mxCell>
                <mxCell id="6eawJTQG3M_XXOWTf8ui-127" style="edgeStyle=none;rounded=0;orthogonalLoop=1;jettySize=auto;html=1;exitX=0.5;exitY=0;exitDx=0;exitDy=0;entryX=0.5;entryY=1;entryDx=0;entryDy=0;endArrow=none;endFill=0;" parent="1" source="6eawJTQG3M_XXOWTf8ui-90" target="6eawJTQG3M_XXOWTf8ui-25" edge="1">
                    <mxGeometry relative="1" as="geometry"/>
                </mxCell>
                <mxCell id="6eawJTQG3M_XXOWTf8ui-90" value="Name" style="ellipse;whiteSpace=wrap;html=1;align=center;fontStyle=4" parent="1" vertex="1">
                    <mxGeometry x="118.5" y="629.75" width="70" height="30" as="geometry"/>
                </mxCell>
                <mxCell id="6eawJTQG3M_XXOWTf8ui-136" style="edgeStyle=none;rounded=0;orthogonalLoop=1;jettySize=auto;html=1;exitX=0.5;exitY=0;exitDx=0;exitDy=0;entryX=0.5;entryY=1;entryDx=0;entryDy=0;endArrow=none;endFill=0;" parent="1" source="6eawJTQG3M_XXOWTf8ui-91" target="6eawJTQG3M_XXOWTf8ui-43" edge="1">
                    <mxGeometry relative="1" as="geometry"/>
                </mxCell>
                <mxCell id="6eawJTQG3M_XXOWTf8ui-91" value="Name" style="ellipse;whiteSpace=wrap;html=1;align=center;fontStyle=4" parent="1" vertex="1">
                    <mxGeometry x="586" y="629.75" width="70" height="30" as="geometry"/>
                </mxCell>
                <mxCell id="6eawJTQG3M_XXOWTf8ui-106" style="edgeStyle=none;rounded=0;orthogonalLoop=1;jettySize=auto;html=1;exitX=1;exitY=0.5;exitDx=0;exitDy=0;entryX=0;entryY=0.5;entryDx=0;entryDy=0;endArrow=none;endFill=0;shape=link;" parent="1" source="6eawJTQG3M_XXOWTf8ui-105" target="CnkEdXGukRLFIG1xnINJ-24" edge="1">
                    <mxGeometry relative="1" as="geometry"/>
                </mxCell>
                <mxCell id="6eawJTQG3M_XXOWTf8ui-107" style="edgeStyle=none;rounded=0;orthogonalLoop=1;jettySize=auto;html=1;exitX=0;exitY=0.5;exitDx=0;exitDy=0;entryX=1;entryY=0.5;entryDx=0;entryDy=0;endArrow=none;endFill=0;" parent="1" source="6eawJTQG3M_XXOWTf8ui-105" target="CnkEdXGukRLFIG1xnINJ-2" edge="1">
                    <mxGeometry relative="1" as="geometry"/>
                </mxCell>
                <mxCell id="6eawJTQG3M_XXOWTf8ui-105" value="Contains" style="shape=rhombus;perimeter=rhombusPerimeter;whiteSpace=wrap;html=1;align=center;" parent="1" vertex="1">
                    <mxGeometry x="333.5" y="373" width="95" height="47.5" as="geometry"/>
                </mxCell>
                <mxCell id="6eawJTQG3M_XXOWTf8ui-111" value="N" style="edgeStyle=none;rounded=0;orthogonalLoop=1;jettySize=auto;html=1;exitX=1;exitY=0.5;exitDx=0;exitDy=0;entryX=1;entryY=0.75;entryDx=0;entryDy=0;endArrow=none;endFill=0;shape=link;" parent="1" source="6eawJTQG3M_XXOWTf8ui-113" target="CnkEdXGukRLFIG1xnINJ-24" edge="1">
                    <mxGeometry x="-0.9673" y="-13" relative="1" as="geometry">
                        <mxPoint x="860" y="479" as="sourcePoint"/>
                        <mxPoint as="offset"/>
                        <Array as="points">
                            <mxPoint x="770" y="752"/>
                            <mxPoint x="770" y="407"/>
                        </Array>
                    </mxGeometry>
                </mxCell>
                <mxCell id="6eawJTQG3M_XXOWTf8ui-150" value="1" style="edgeStyle=none;rounded=0;orthogonalLoop=1;jettySize=auto;html=1;exitX=0;exitY=0.5;exitDx=0;exitDy=0;entryX=1;entryY=0.25;entryDx=0;entryDy=0;endArrow=none;endFill=0;" parent="1" source="6eawJTQG3M_XXOWTf8ui-113" target="CnkEdXGukRLFIG1xnINJ-10" edge="1">
                    <mxGeometry x="-0.9884" y="10" relative="1" as="geometry">
                        <mxPoint as="offset"/>
                    </mxGeometry>
                </mxCell>
                <mxCell id="6eawJTQG3M_XXOWTf8ui-113" value="Creates" style="shape=rhombus;double=1;perimeter=rhombusPerimeter;whiteSpace=wrap;html=1;align=center;" parent="1" vertex="1">
                    <mxGeometry x="549.13" y="721.79" width="120" height="60" as="geometry"/>
                </mxCell>
                <mxCell id="6eawJTQG3M_XXOWTf8ui-120" style="edgeStyle=none;rounded=0;orthogonalLoop=1;jettySize=auto;html=1;exitX=1;exitY=0.5;exitDx=0;exitDy=0;entryX=0.5;entryY=0;entryDx=0;entryDy=0;endArrow=none;endFill=0;" parent="1" source="6eawJTQG3M_XXOWTf8ui-116" target="6eawJTQG3M_XXOWTf8ui-52" edge="1">
                    <mxGeometry relative="1" as="geometry"/>
                </mxCell>
                <mxCell id="6eawJTQG3M_XXOWTf8ui-116" value="Brightness" style="ellipse;whiteSpace=wrap;html=1;align=center;fontStyle=4" parent="1" vertex="1">
                    <mxGeometry x="228.5" y="173.75" width="75" height="30" as="geometry"/>
                </mxCell>
                <mxCell id="6eawJTQG3M_XXOWTf8ui-122" style="edgeStyle=none;rounded=0;orthogonalLoop=1;jettySize=auto;html=1;exitX=0.5;exitY=1;exitDx=0;exitDy=0;entryX=0.5;entryY=0;entryDx=0;entryDy=0;endArrow=none;endFill=0;" parent="1" source="6eawJTQG3M_XXOWTf8ui-118" target="6eawJTQG3M_XXOWTf8ui-52" edge="1">
                    <mxGeometry relative="1" as="geometry"/>
                </mxCell>
                <mxCell id="6eawJTQG3M_XXOWTf8ui-118" value="Saturation" style="ellipse;whiteSpace=wrap;html=1;align=center;fontStyle=4" parent="1" vertex="1">
                    <mxGeometry x="271" y="143.75" width="75" height="30" as="geometry"/>
                </mxCell>
                <mxCell id="6eawJTQG3M_XXOWTf8ui-121" style="edgeStyle=none;rounded=0;orthogonalLoop=1;jettySize=auto;html=1;exitX=0.5;exitY=1;exitDx=0;exitDy=0;entryX=0.5;entryY=0;entryDx=0;entryDy=0;endArrow=none;endFill=0;" parent="1" source="6eawJTQG3M_XXOWTf8ui-119" target="6eawJTQG3M_XXOWTf8ui-52" edge="1">
                    <mxGeometry relative="1" as="geometry"/>
                </mxCell>
                <mxCell id="6eawJTQG3M_XXOWTf8ui-119" value="Hue" style="ellipse;whiteSpace=wrap;html=1;align=center;fontStyle=4" parent="1" vertex="1">
                    <mxGeometry x="349.75" y="135" width="75" height="30" as="geometry"/>
                </mxCell>
                <mxCell id="6eawJTQG3M_XXOWTf8ui-131" style="edgeStyle=none;rounded=0;orthogonalLoop=1;jettySize=auto;html=1;exitX=0;exitY=0.5;exitDx=0;exitDy=0;entryX=0.5;entryY=0;entryDx=0;entryDy=0;endArrow=none;endFill=0;" parent="1" source="6eawJTQG3M_XXOWTf8ui-129" target="6eawJTQG3M_XXOWTf8ui-52" edge="1">
                    <mxGeometry relative="1" as="geometry"/>
                </mxCell>
                <mxCell id="6eawJTQG3M_XXOWTf8ui-129" value="Name" style="ellipse;whiteSpace=wrap;html=1;align=center;fontStyle=0" parent="1" vertex="1">
                    <mxGeometry x="428.5" y="165" width="75" height="30" as="geometry"/>
                </mxCell>
                <mxCell id="6eawJTQG3M_XXOWTf8ui-134" style="edgeStyle=none;rounded=0;orthogonalLoop=1;jettySize=auto;html=1;exitX=0.5;exitY=1;exitDx=0;exitDy=0;entryX=0.5;entryY=0;entryDx=0;entryDy=0;endArrow=none;endFill=0;" parent="1" source="6eawJTQG3M_XXOWTf8ui-132" target="CnkEdXGukRLFIG1xnINJ-8" edge="1">
                    <mxGeometry relative="1" as="geometry"/>
                </mxCell>
                <mxCell id="6eawJTQG3M_XXOWTf8ui-132" value="Name" style="ellipse;whiteSpace=wrap;html=1;align=center;fontStyle=4" parent="1" vertex="1">
                    <mxGeometry x="516.63" y="155" width="75" height="30" as="geometry"/>
                </mxCell>
                <mxCell id="6eawJTQG3M_XXOWTf8ui-135" style="edgeStyle=none;rounded=0;orthogonalLoop=1;jettySize=auto;html=1;exitX=0.5;exitY=1;exitDx=0;exitDy=0;entryX=0.5;entryY=0;entryDx=0;entryDy=0;endArrow=none;endFill=0;" parent="1" source="6eawJTQG3M_XXOWTf8ui-133" target="CnkEdXGukRLFIG1xnINJ-8" edge="1">
                    <mxGeometry relative="1" as="geometry"/>
                </mxCell>
                <mxCell id="6eawJTQG3M_XXOWTf8ui-133" value="Family" style="ellipse;whiteSpace=wrap;html=1;align=center;fontStyle=0" parent="1" vertex="1">
                    <mxGeometry x="621.63" y="155" width="75" height="30" as="geometry"/>
                </mxCell>
                <mxCell id="6eawJTQG3M_XXOWTf8ui-141" style="edgeStyle=none;rounded=0;orthogonalLoop=1;jettySize=auto;html=1;exitX=0.5;exitY=0;exitDx=0;exitDy=0;entryX=0.5;entryY=1;entryDx=0;entryDy=0;endArrow=none;endFill=0;" parent="1" source="6eawJTQG3M_XXOWTf8ui-138" target="6eawJTQG3M_XXOWTf8ui-34" edge="1">
                    <mxGeometry relative="1" as="geometry"/>
                </mxCell>
                <mxCell id="6eawJTQG3M_XXOWTf8ui-138" value="Name" style="ellipse;whiteSpace=wrap;html=1;align=center;fontStyle=4" parent="1" vertex="1">
                    <mxGeometry x="307.87" y="629.75" width="75" height="30" as="geometry"/>
                </mxCell>
                <mxCell id="6eawJTQG3M_XXOWTf8ui-142" style="edgeStyle=none;rounded=0;orthogonalLoop=1;jettySize=auto;html=1;exitX=0.5;exitY=0;exitDx=0;exitDy=0;entryX=0.5;entryY=1;entryDx=0;entryDy=0;endArrow=none;endFill=0;" parent="1" source="6eawJTQG3M_XXOWTf8ui-139" target="6eawJTQG3M_XXOWTf8ui-34" edge="1">
                    <mxGeometry relative="1" as="geometry"/>
                </mxCell>
                <mxCell id="6eawJTQG3M_XXOWTf8ui-139" value="Side Count" style="ellipse;whiteSpace=wrap;html=1;align=center;fontStyle=0" parent="1" vertex="1">
                    <mxGeometry x="391.62" y="629.75" width="75" height="30" as="geometry"/>
                </mxCell>
                <mxCell id="6eawJTQG3M_XXOWTf8ui-144" style="edgeStyle=none;rounded=0;orthogonalLoop=1;jettySize=auto;html=1;exitX=0;exitY=0.5;exitDx=0;exitDy=0;entryX=0.75;entryY=0;entryDx=0;entryDy=0;endArrow=none;endFill=0;" parent="1" source="6eawJTQG3M_XXOWTf8ui-143" target="CnkEdXGukRLFIG1xnINJ-24" edge="1">
                    <mxGeometry relative="1" as="geometry"/>
                </mxCell>
                <mxCell id="6eawJTQG3M_XXOWTf8ui-143" value="&lt;span style=&quot;border-bottom: 1px dotted&quot;&gt;Number&lt;/span&gt;" style="ellipse;whiteSpace=wrap;html=1;align=center;" parent="1" vertex="1">
                    <mxGeometry x="696" y="324.34000000000003" width="75" height="30" as="geometry"/>
                </mxCell>
                <mxCell id="6eawJTQG3M_XXOWTf8ui-149" style="edgeStyle=none;rounded=0;orthogonalLoop=1;jettySize=auto;html=1;exitX=0.5;exitY=0;exitDx=0;exitDy=0;endArrow=none;endFill=0;entryX=0.5;entryY=1;entryDx=0;entryDy=0;" parent="1" source="6eawJTQG3M_XXOWTf8ui-148" target="CnkEdXGukRLFIG1xnINJ-84" edge="1">
                    <mxGeometry relative="1" as="geometry">
                        <mxPoint x="625.38" y="894.61" as="sourcePoint"/>
                        <mxPoint x="679.13" y="854.6100000000002" as="targetPoint"/>
                    </mxGeometry>
                </mxCell>
                <mxCell id="6eawJTQG3M_XXOWTf8ui-148" value="Bio" style="ellipse;whiteSpace=wrap;html=1;align=center;fontStyle=0" parent="1" vertex="1">
                    <mxGeometry x="621.63" y="873.39" width="75" height="30" as="geometry"/>
                </mxCell>
                <mxCell id="6eawJTQG3M_XXOWTf8ui-162" value="1" style="edgeStyle=none;shape=link;rounded=0;orthogonalLoop=1;jettySize=auto;html=1;exitX=0;exitY=0.5;exitDx=0;exitDy=0;endArrow=none;endFill=0;entryX=1;entryY=0.75;entryDx=0;entryDy=0;" parent="1" source="6eawJTQG3M_XXOWTf8ui-155" target="CnkEdXGukRLFIG1xnINJ-10" edge="1">
                    <mxGeometry x="-1" y="14" relative="1" as="geometry">
                        <mxPoint x="7" y="2" as="offset"/>
                    </mxGeometry>
                </mxCell>
                <mxCell id="6eawJTQG3M_XXOWTf8ui-155" value="Has" style="shape=rhombus;double=1;perimeter=rhombusPerimeter;whiteSpace=wrap;html=1;align=center;" parent="1" vertex="1">
                    <mxGeometry x="408.5" y="801.3999999999999" width="120" height="60" as="geometry"/>
                </mxCell>
                <mxCell id="6eawJTQG3M_XXOWTf8ui-156" value="" style="endArrow=none;html=1;rounded=0;entryX=1;entryY=0.5;entryDx=0;entryDy=0;shape=link;" parent="1" source="CnkEdXGukRLFIG1xnINJ-84" target="6eawJTQG3M_XXOWTf8ui-155" edge="1">
                    <mxGeometry relative="1" as="geometry">
                        <mxPoint x="804.13" y="859.86" as="sourcePoint"/>
                        <mxPoint x="964.13" y="859.86" as="targetPoint"/>
                    </mxGeometry>
                </mxCell>
                <mxCell id="6eawJTQG3M_XXOWTf8ui-158" value="1" style="resizable=0;html=1;align=right;verticalAlign=bottom;" parent="6eawJTQG3M_XXOWTf8ui-156" connectable="0" vertex="1">
                    <mxGeometry x="1" relative="1" as="geometry">
                        <mxPoint y="21" as="offset"/>
                    </mxGeometry>
                </mxCell>
                <mxCell id="6eawJTQG3M_XXOWTf8ui-168" style="edgeStyle=none;rounded=0;orthogonalLoop=1;jettySize=auto;html=1;exitX=0.5;exitY=0;exitDx=0;exitDy=0;endArrow=none;endFill=0;" parent="1" source="6eawJTQG3M_XXOWTf8ui-167" target="CnkEdXGukRLFIG1xnINJ-11" edge="1">
                    <mxGeometry relative="1" as="geometry"/>
                </mxCell>
                <mxCell id="6eawJTQG3M_XXOWTf8ui-167" value="Permissions" style="ellipse;whiteSpace=wrap;html=1;align=center;fontStyle=0" parent="1" vertex="1">
                    <mxGeometry x="53.5" y="695" width="75" height="30" as="geometry"/>
                </mxCell>
                <mxCell id="6eawJTQG3M_XXOWTf8ui-175" value="Display Name" style="ellipse;whiteSpace=wrap;html=1;align=center;fontStyle=0" parent="1" vertex="1">
                    <mxGeometry x="521.63" y="873" width="75" height="30" as="geometry"/>
                </mxCell>
                <mxCell id="6eawJTQG3M_XXOWTf8ui-181" style="edgeStyle=none;rounded=0;orthogonalLoop=1;jettySize=auto;html=1;endArrow=none;endFill=0;" parent="1" source="6eawJTQG3M_XXOWTf8ui-180" target="CnkEdXGukRLFIG1xnINJ-9" edge="1">
                    <mxGeometry relative="1" as="geometry"/>
                </mxCell>
                <mxCell id="6eawJTQG3M_XXOWTf8ui-180" value="Username" style="ellipse;whiteSpace=wrap;html=1;align=center;fontStyle=0;direction=west;" parent="1" vertex="1">
                    <mxGeometry x="240" y="890" width="75" height="30" as="geometry"/>
                </mxCell>
                <mxCell id="6eawJTQG3M_XXOWTf8ui-183" style="edgeStyle=none;rounded=0;orthogonalLoop=1;jettySize=auto;html=1;endArrow=none;endFill=0;" parent="1" source="6eawJTQG3M_XXOWTf8ui-182" target="CnkEdXGukRLFIG1xnINJ-9" edge="1">
                    <mxGeometry relative="1" as="geometry"/>
                </mxCell>
                <mxCell id="6eawJTQG3M_XXOWTf8ui-182" value="ID" style="ellipse;whiteSpace=wrap;html=1;align=center;fontStyle=4;direction=west;" parent="1" vertex="1">
                    <mxGeometry x="43.5" y="890" width="75" height="30" as="geometry"/>
                </mxCell>
                <mxCell id="FZOF9hMqammXhgaBvVRD-6" value="N" style="text;html=1;align=center;verticalAlign=middle;resizable=0;points=[];autosize=1;strokeColor=none;fillColor=none;" parent="1" vertex="1">
                    <mxGeometry x="541" y="534.25" width="20" height="20" as="geometry"/>
                </mxCell>
                <mxCell id="FZOF9hMqammXhgaBvVRD-7" value="1" style="text;html=1;align=center;verticalAlign=middle;resizable=0;points=[];autosize=1;strokeColor=none;fillColor=none;" parent="1" vertex="1">
                    <mxGeometry x="673.5" y="534.25" width="20" height="20" as="geometry"/>
                </mxCell>
                <mxCell id="FZOF9hMqammXhgaBvVRD-8" value="N" style="text;html=1;align=center;verticalAlign=middle;resizable=0;points=[];autosize=1;strokeColor=none;fillColor=none;" parent="1" vertex="1">
                    <mxGeometry x="208.5" y="466.75" width="20" height="20" as="geometry"/>
                </mxCell>
                <mxCell id="FZOF9hMqammXhgaBvVRD-9" value="M" style="text;html=1;align=center;verticalAlign=middle;resizable=0;points=[];autosize=1;strokeColor=none;fillColor=none;" parent="1" vertex="1">
                    <mxGeometry x="299.75" y="466.75" width="30" height="20" as="geometry"/>
                </mxCell>
                <mxCell id="FZOF9hMqammXhgaBvVRD-10" value="N" style="text;html=1;align=center;verticalAlign=middle;resizable=0;points=[];autosize=1;strokeColor=none;fillColor=none;" parent="1" vertex="1">
                    <mxGeometry x="439.75" y="466.75" width="20" height="20" as="geometry"/>
                </mxCell>
                <mxCell id="FZOF9hMqammXhgaBvVRD-11" value="M" style="text;html=1;align=center;verticalAlign=middle;resizable=0;points=[];autosize=1;strokeColor=none;fillColor=none;" parent="1" vertex="1">
                    <mxGeometry x="534.75" y="466.75" width="30" height="20" as="geometry"/>
                </mxCell>
                <mxCell id="FZOF9hMqammXhgaBvVRD-12" value="N" style="text;html=1;align=center;verticalAlign=middle;resizable=0;points=[];autosize=1;strokeColor=none;fillColor=none;" parent="1" vertex="1">
                    <mxGeometry x="676.63" y="466.75" width="20" height="20" as="geometry"/>
                </mxCell>
                <mxCell id="FZOF9hMqammXhgaBvVRD-13" value="M" style="text;html=1;align=center;verticalAlign=middle;resizable=0;points=[];autosize=1;strokeColor=none;fillColor=none;" parent="1" vertex="1">
                    <mxGeometry x="69.75" y="311.75" width="30" height="20" as="geometry"/>
                </mxCell>
                <mxCell id="FZOF9hMqammXhgaBvVRD-14" value="N" style="text;html=1;align=center;verticalAlign=middle;resizable=0;points=[];autosize=1;strokeColor=none;fillColor=none;" parent="1" vertex="1">
                    <mxGeometry x="109.75" y="261.75" width="20" height="20" as="geometry"/>
                </mxCell>
                <mxCell id="FZOF9hMqammXhgaBvVRD-15" value="1" style="text;html=1;align=center;verticalAlign=middle;resizable=0;points=[];autosize=1;strokeColor=none;fillColor=none;" parent="1" vertex="1">
                    <mxGeometry x="169.75" y="261.75" width="20" height="20" as="geometry"/>
                </mxCell>
                <mxCell id="FZOF9hMqammXhgaBvVRD-16" value="N" style="text;html=1;align=center;verticalAlign=middle;resizable=0;points=[];autosize=1;strokeColor=none;fillColor=none;" parent="1" vertex="1">
                    <mxGeometry x="219.75" y="311.75" width="20" height="20" as="geometry"/>
                </mxCell>
                <mxCell id="FZOF9hMqammXhgaBvVRD-17" value="N" style="text;html=1;align=center;verticalAlign=middle;resizable=0;points=[];autosize=1;strokeColor=none;fillColor=none;" parent="1" vertex="1">
                    <mxGeometry x="279.75" y="304.34" width="20" height="20" as="geometry"/>
                </mxCell>
                <mxCell id="FZOF9hMqammXhgaBvVRD-18" value="1" style="text;html=1;align=center;verticalAlign=middle;resizable=0;points=[];autosize=1;strokeColor=none;fillColor=none;" parent="1" vertex="1">
                    <mxGeometry x="335.37" y="261.75" width="20" height="20" as="geometry"/>
                </mxCell>
                <mxCell id="FZOF9hMqammXhgaBvVRD-19" value="M" style="text;html=1;align=center;verticalAlign=middle;resizable=0;points=[];autosize=1;strokeColor=none;fillColor=none;" parent="1" vertex="1">
                    <mxGeometry x="391.62" y="261.75" width="30" height="20" as="geometry"/>
                </mxCell>
                <mxCell id="FZOF9hMqammXhgaBvVRD-20" value="N" style="text;html=1;align=center;verticalAlign=middle;resizable=0;points=[];autosize=1;strokeColor=none;fillColor=none;" parent="1" vertex="1">
                    <mxGeometry x="433.75" y="311.75" width="20" height="20" as="geometry"/>
                </mxCell>
                <mxCell id="FZOF9hMqammXhgaBvVRD-21" value="N" style="text;html=1;align=center;verticalAlign=middle;resizable=0;points=[];autosize=1;strokeColor=none;fillColor=none;" parent="1" vertex="1">
                    <mxGeometry x="521" y="314.25" width="20" height="20" as="geometry"/>
                </mxCell>
                <mxCell id="FZOF9hMqammXhgaBvVRD-22" value="1" style="text;html=1;align=center;verticalAlign=middle;resizable=0;points=[];autosize=1;strokeColor=none;fillColor=none;" parent="1" vertex="1">
                    <mxGeometry x="529.13" y="246.75" width="20" height="20" as="geometry"/>
                </mxCell>
                <mxCell id="FZOF9hMqammXhgaBvVRD-23" value="M" style="text;html=1;align=center;verticalAlign=middle;resizable=0;points=[];autosize=1;strokeColor=none;fillColor=none;" parent="1" vertex="1">
                    <mxGeometry x="659.75" y="311.75" width="30" height="20" as="geometry"/>
                </mxCell>
                <mxCell id="FZOF9hMqammXhgaBvVRD-24" value="N" style="text;html=1;align=center;verticalAlign=middle;resizable=0;points=[];autosize=1;strokeColor=none;fillColor=none;" parent="1" vertex="1">
                    <mxGeometry x="641" y="246.75" width="20" height="20" as="geometry"/>
                </mxCell>
                <mxCell id="6eawJTQG3M_XXOWTf8ui-194" style="edgeStyle=none;rounded=0;orthogonalLoop=1;jettySize=auto;html=1;exitX=0.5;exitY=1;exitDx=0;exitDy=0;entryX=0.5;entryY=0;entryDx=0;entryDy=0;endArrow=none;endFill=0;" parent="1" source="6eawJTQG3M_XXOWTf8ui-190" target="CnkEdXGukRLFIG1xnINJ-10" edge="1">
                    <mxGeometry relative="1" as="geometry"/>
                </mxCell>
                <mxCell id="6eawJTQG3M_XXOWTf8ui-190" value="Birthday" style="ellipse;whiteSpace=wrap;html=1;align=center;fontStyle=0" parent="1" vertex="1">
                    <mxGeometry x="179.75" y="695" width="75" height="30" as="geometry"/>
                </mxCell>
                <mxCell id="6eawJTQG3M_XXOWTf8ui-192" value="Email" style="ellipse;whiteSpace=wrap;html=1;align=center;fontStyle=0" parent="1" vertex="1">
                    <mxGeometry x="262.25" y="695" width="75" height="30" as="geometry"/>
                </mxCell>
                <mxCell id="6eawJTQG3M_XXOWTf8ui-195" value="Note: Username is a unique attribute" style="text;html=1;strokeColor=none;fillColor=none;align=left;verticalAlign=middle;whiteSpace=wrap;rounded=0;" parent="1" vertex="1">
                    <mxGeometry x="75.5" y="935" width="211" height="30" as="geometry"/>
                </mxCell>
                <mxCell id="6eawJTQG3M_XXOWTf8ui-197" value="Vibe Extended Entity Relationship Diagram" style="text;html=1;strokeColor=none;fillColor=none;align=center;verticalAlign=middle;whiteSpace=wrap;rounded=0;fontSize=36;fontStyle=1" parent="1" vertex="1">
                    <mxGeometry x="53.00000000000001" y="30" width="744" height="30" as="geometry"/>
                </mxCell>
                <mxCell id="6eawJTQG3M_XXOWTf8ui-198" value="Ryan Allard, Alexanna Little, Delara&amp;nbsp;Shamanian" style="text;html=1;strokeColor=none;fillColor=none;align=center;verticalAlign=middle;whiteSpace=wrap;rounded=0;fontSize=20;" parent="1" vertex="1">
                    <mxGeometry x="204" y="70" width="441" height="30" as="geometry"/>
                </mxCell>
                <mxCell id="2" value="1" style="text;html=1;align=center;verticalAlign=middle;resizable=0;points=[];autosize=1;strokeColor=none;fillColor=none;" vertex="1" parent="1">
                    <mxGeometry x="315.37" y="376.75" width="20" height="20" as="geometry"/>
                </mxCell>
                <mxCell id="3" value="N" style="text;html=1;align=center;verticalAlign=middle;resizable=0;points=[];autosize=1;strokeColor=none;fillColor=none;" vertex="1" parent="1">
                    <mxGeometry x="424.75" y="376.75" width="20" height="20" as="geometry"/>
                </mxCell>
                <mxCell id="5" value="&lt;div&gt;&lt;span style=&quot;background-color: rgba(4 , 4 , 5 , 0.07) ; color: rgb(220 , 221 , 222)&quot;&gt;Note: The many to many relationships between &quot;MOOD&quot; and the 6 qualia (&quot;COLOUR&quot;, &quot;SCENT&quot;, &quot;MUSIC_GENRE&quot;, &quot;SHAPE&quot;, &quot;MEDIA_GENRE&quot;, &quot;TASTE&quot;) will be created by &quot;CLIENTS&quot; when they create &quot;RESULTS&quot;. &quot;RESULTS&quot; will be stored as a whole and appear on &quot;PROFILES,&quot; and the connections between &quot;MOOD&quot; and each qualia will be stored independently. Since &quot;CLIENTS&quot; are required to select a &quot;MOOD&quot; when creating a &quot;&quot;RESULT&quot;, we can fill in any blanks clients leave if they do not select one of the qualia when making their results using the most frequently occurring relationship between that mood and qualia. This is the basic idea of how our database will recommend sensory experiences to clients.&lt;/span&gt;&lt;/div&gt;" style="text;html=1;strokeColor=none;fillColor=none;align=left;verticalAlign=middle;whiteSpace=wrap;rounded=0;" vertex="1" parent="1">
                    <mxGeometry x="75.5" y="980" width="724.5" height="100" as="geometry"/>
                </mxCell>
            </root>
        </mxGraphModel>
    </diagram>
</mxfile>